<?xml version="1.0" standalone="no"?>
<?xml-stylesheet type="text/css" href="handson.css" ?>
<svg xmlns="http://www.w3.org/2000/svg" width="1000" height="750" viewBox="0 0 1000 750" xmlns:xlink="http://www.w3.org/1999/xlink" >

//---------------The overall background of the animation------------------
<g class="background">

	//The sky of our animation
  <rect class="sky" fill="rgb(135,206,235)" x="0" y="0" width="1000" height="300" />

	//The mountain of our animation
  <rect fill="rgb(128,64,0)" x="0" y="300" width="1000" height="450"/>
  <path style="fill:white;" d="M300 300 L600 300 L450 220 Z" />
  <path style="fill:rgb(128,64,0);" d="M600 300 L1000 0 L1000 300 Z" />
  <path style="fill:rgb(135,206,235);" d="M0 480 L300 300 L0 300 Z" />

  //The snow on top of the mountain
  <path style="fill:white;" d="M867 100 L1000 100 L1000 0 Z" />
   
   //---------------Clouds, trees and the sun--------------------

    // The tree on the mountain
    <path style="fill:green;" d="M610,270 l-49,0 l23,-26 l-23,1 l26,-27 l-26,0 l37,-38 l39,40 l-28,-1 l25,25 l-22,0 l24,26 l-26,0" />
    <rect style="fill:rgb(139,69,19);" x="590" y="270" width="20" height="30"/>

    //The sun
    <circle style="fill:yellow;" cx="50" cy="50" r="50"/>

    //Clouds done with Bezier curves
    <path style="fill:white;" opacity='0.7' d="M100,100 c-10,-25 36,-54 54,-23 c4,-16 56,-44 81,9 c38,-9 50,53 -7,37 c4,42 -90,39 -87,7 c-32,28 -74,-6 -41,-29 l0,-1">
    <animateMotion
        path="M -300 0 H 1000 Z"
        dur="20s" repeatCount="indefinite" />
    </path>

    //It's snowing !
  <g class ="Snow">
    <circle style="fill:white;" cx="0" cy="50" r="5">
    <animateMotion
        path="M 100 -100 L 100 850"
        dur="7s" repeatCount="indefinite" />
    </circle>

    <circle style="fill:white;" cx="100" cy="50" r="5">
    <animateMotion
        path="M 100 -100 L 100 850"
        dur="10s" repeatCount="indefinite" />
    </circle>

    <circle style="fill:white;" cx="200" cy="50" r="5">
    <animateMotion
        path="M 100 -100 L 100 850"
        dur="6s" repeatCount="indefinite" />
    </circle>

    <circle style="fill:white;" cx="300" cy="50" r="5">
    <animateMotion
        path="M 100 -100 L 100 850"
        dur="9s" repeatCount="indefinite" />
    </circle>

    <circle style="fill:white;" cx="400" cy="50" r="5">
    <animateMotion
        path="M 100 -100 L 100 850"
        dur="5s" repeatCount="indefinite" />
    </circle>

    <circle style="fill:white;" cx="500" cy="50" r="5">
    <animateMotion
        path="M 100 -100 L 100 850"
        dur="9s" repeatCount="indefinite" />
    </circle>

    <circle style="fill:white;" cx="600" cy="50" r="5">
    <animateMotion
        path="M 100 -100 L 100 850"
        dur="5s" repeatCount="indefinite" />
    </circle>

    <circle style="fill:white;" cx="700" cy="50" r="5">
    <animateMotion
        path="M 100 -100 L 100 850"
        dur="8s" repeatCount="indefinite" />
    </circle>

    <circle style="fill:white;" cx="800" cy="50" r="5">
    <animateMotion
        path="M 100 -100 L 100 850"
        dur="10s" repeatCount="indefinite" />
    </circle>

    <circle style="fill:white;" cx="900" cy="50" r="5">
    <animateMotion
        path="M 100 -100 L 100 850"
        dur="5s" repeatCount="indefinite" />
    </circle>

    <circle style="fill:white;" cx="1000" cy="50" r="5">
    <animateMotion
        path="M 100 -100 L 100 850"
        dur="7s" repeatCount="indefinite" />
    </circle>
  </g>

</g>

//The rescue vehicle
<g class="Vehicles">
  <path style="fill:red;" d="M0,0 l24,-27 l-1,25 l36,10 l40,-8 l0,33 l-27,2 l0,16 l30,0 l0,7 l-38,-1 l0,-22 l-32,0 l0,21 l-56,0 l1,-8 l47,0 l0,-13 l-37,-11 l13,-25"/>
  <animateMotion
        path="M600 300 L1000 0"
        dur="7s" repeatCount="indefinite" />

</svg>